<svg t="1595394362559" class="icon" viewBox="0 0 1024 1024" version="1.1" xmlns="http://www.w3.org/2000/svg" p-id="3297" width="200" height="200"><path d="M514.1 65.9c-246.9 0-447 200.1-447 446.8s200.1 446.8 447 446.8 447-200.1 447-446.8S761 65.9 514.1 65.9z m183.3 627.3c-18.7 18.7-49 18.7-67.7 0l-115-114.9-111.5 111.3c-18.4 18.3-48.3 18.3-66.7 0-18.4-18.4-18.4-48.1 0-66.5l111.6-111.3-111.9-111.9c-18.7-18.7-18.7-49 0-67.7 18.7-18.7 49-18.7 67.7 0l112 112 109.6-109.3c18.4-18.3 48.3-18.3 66.7 0s18.4 48.2 0 66.5L582.5 510.7l114.9 114.8c18.7 18.8 18.7 49.1 0 67.7z" fill="#BBBBBB" p-id="3298"></path></svg>