<svg t="1595382350981" class="icon" viewBox="0 0 1024 1024" version="1.1" xmlns="http://www.w3.org/2000/svg" p-id="3695" width="200" height="200"><path d="M806.656 83.2a145.024 145.024 0 0 0-179.84 11.392l-5.376 5.12-36.608 36.608-287.488 287.488L75.648 645.504l-4.352 4.352c-9.344 9.344-14.08 21.888-13.824 35.712a62.72 62.72 0 0 0 18.176 48.64l9.984 9.984 194.176 194.176 9.984 9.984a62.72 62.72 0 0 0 48.64 18.176c13.824 0.256 26.368-4.48 35.712-13.824l4.352-4.352L545.28 781.696l345.856-345.856 33.152-33.28 5.12-5.376a145.024 145.024 0 0 0 11.392-179.84 149.76 149.76 0 0 0-16.512-19.712l-97.92-97.92A149.76 149.76 0 0 0 806.656 83.2z m-140.16 61.568a81.152 81.152 0 0 1 114.816 0l97.92 97.92 2.56 2.688 0.64 0.64c0.768 0.896 1.664 1.792 2.432 2.816h0.128l2.048 2.688 0.512 0.768a24.064 24.064 0 0 1 2.048 2.944l0.256 0.256c0.512 1.024 1.152 1.92 1.664 2.816l0.384 0.768a17.664 17.664 0 0 1 1.792 3.072l0.256 0.384 1.28 2.816 0.384 0.768a24.192 24.192 0 0 1 1.408 3.2l0.256 0.512c0.384 0.896 0.64 1.92 1.024 2.816s0.128 0.512 0.256 0.768a30.848 30.848 0 0 1 1.024 3.2c0.128 0.256 0.128 0.512 0.256 0.64l0.768 2.944a5.504 5.504 0 0 0 0.128 0.64l0.768 3.328c0 0.256 0.128 0.512 0.128 0.768s0.384 1.92 0.512 2.944a1.152 1.152 0 0 0 0.128 0.64l0.384 3.456v0.64a24.832 24.832 0 0 1 0.256 3.072v0.512a31.232 31.232 0 0 1 0.128 3.456v0.768a26.752 26.752 0 0 1-0.128 3.2v0.384a31.36 31.36 0 0 1-0.256 3.456v0.768l-0.384 3.2v0.256c-0.128 1.152-0.384 2.304-0.512 3.456a1.664 1.664 0 0 0-0.128 0.768l-0.768 3.328c-16.128-18.432-36.352-35.072-60.672-49.664-35.456-21.12-79.104-37.376-126.208-46.976-32.384-6.656-56.704-39.296-63.488-62.08z m-5.888 124.672a133.888 133.888 0 0 0 40.576 15.872l7.552 1.536L299.52 696.064c-12.288-12.544-22.528-24.192-30.976-34.688zM328.576 724.48l424.832-424.832a309.632 309.632 0 0 1 45.568 20.096L364.416 754.304c-11.008-8.192-22.912-18.048-35.84-29.824z m273.664-515.584a181.888 181.888 0 0 0 14.464 21.632 170.112 170.112 0 0 0 11.776 13.44l-383.872 384c-13.696-22.4-17.024-36.608-17.792-43.648zM335.488 901.248a43.904 43.904 0 0 1-10.624-7.936L130.688 699.136a43.904 43.904 0 0 1-7.936-10.624l53.504-53.632c15.616 34.304 44.416 72.704 86.144 114.432 45.952 45.824 89.472 77.952 129.536 95.616z m106.624-106.496c-8.576-1.792-23.04-6.272-43.136-17.536l434.432-434.432a144.64 144.64 0 0 1 29.056 31.488z" fill="#EDBB67" p-id="3696"></path></svg>